<svg xmlns="http://www.w3.org/2000/svg" xmlns:xlink="http://www.w3.org/1999/xlink" width="623pt" height="996" viewBox="0 0 622.93 747"><g id="graph0" class="graph" transform="scale(1 1) rotate(0) translate(4 743)"><title>dependency-cruiser output</title><polygon fill="#fff" stroke="transparent" points="-4 4 -4 -743 618.929 -743 618.929 4 -4 4"/><g id="clust1" class="cluster"><title>cluster_/bin</title><path fill="none" stroke="#000" stroke-width="2" d="M20,-387.5C20,-387.5 104.0474,-387.5 104.0474,-387.5 110.0474,-387.5 116.0474,-393.5 116.0474,-399.5 116.0474,-399.5 116.0474,-426.5 116.0474,-426.5 116.0474,-432.5 110.0474,-438.5 104.0474,-438.5 104.0474,-438.5 20,-438.5 20,-438.5 14,-438.5 8,-432.5 8,-426.5 8,-426.5 8,-399.5 8,-399.5 8,-393.5 14,-387.5 20,-387.5"/><text x="62.024" y="-427.3" fill="#000" font-family="Helvetica,sans-Serif" font-size="9" font-weight="bold" text-anchor="middle">bin</text></g><g id="clust2" class="cluster"><title>cluster_/src</title><path fill="none" stroke="#000" stroke-width="2" d="M147.5662,-25.5C147.5662,-25.5 594.9294,-25.5 594.9294,-25.5 600.9294,-25.5 606.9294,-31.5 606.9294,-37.5 606.9294,-37.5 606.9294,-701.5 606.9294,-701.5 606.9294,-707.5 600.9294,-713.5 594.9294,-713.5 594.9294,-713.5 147.5662,-713.5 147.5662,-713.5 141.5662,-713.5 135.5662,-707.5 135.5662,-701.5 135.5662,-701.5 135.5662,-37.5 135.5662,-37.5 135.5662,-31.5 141.5662,-25.5 147.5662,-25.5"/><text x="371.248" y="-702.3" fill="#000" font-family="Helvetica,sans-Serif" font-size="9" font-weight="bold" text-anchor="middle">src</text></g><g id="clust3" class="cluster"><title>cluster_/src/cli</title><path fill="none" stroke="#000" stroke-width="2" d="M155.5662,-33.5C155.5662,-33.5 472.6592,-33.5 472.6592,-33.5 478.6592,-33.5 484.6592,-39.5 484.6592,-45.5 484.6592,-45.5 484.6592,-174.5 484.6592,-174.5 484.6592,-180.5 478.6592,-186.5 472.6592,-186.5 472.6592,-186.5 155.5662,-186.5 155.5662,-186.5 149.5662,-186.5 143.5662,-180.5 143.5662,-174.5 143.5662,-174.5 143.5662,-45.5 143.5662,-45.5 143.5662,-39.5 149.5662,-33.5 155.5662,-33.5"/><text x="314.113" y="-175.3" fill="#000" font-family="Helvetica,sans-Serif" font-size="9" font-weight="bold" text-anchor="middle">cli</text></g><g id="clust4" class="cluster"><title>cluster_/src/extract</title><path fill="none" stroke="#000" stroke-width="2" d="M519.9221,-403.5C519.9221,-403.5 581.9221,-403.5 581.9221,-403.5 587.9221,-403.5 593.9221,-409.5 593.9221,-415.5 593.9221,-415.5 593.9221,-501.5 593.9221,-501.5 593.9221,-507.5 587.9221,-513.5 581.9221,-513.5 581.9221,-513.5 519.9221,-513.5 519.9221,-513.5 513.9221,-513.5 507.9221,-507.5 507.9221,-501.5 507.9221,-501.5 507.9221,-415.5 507.9221,-415.5 507.9221,-409.5 513.9221,-403.5 519.9221,-403.5"/><text x="550.922" y="-502.3" fill="#000" font-family="Helvetica,sans-Serif" font-size="9" font-weight="bold" text-anchor="middle">extract</text></g><g id="clust5" class="cluster"><title>cluster_/src/extract/transpile</title><path fill="none" stroke="#000" stroke-width="2" d="M527.9221,-437.5C527.9221,-437.5 573.9221,-437.5 573.9221,-437.5 579.9221,-437.5 585.9221,-443.5 585.9221,-449.5 585.9221,-449.5 585.9221,-476.5 585.9221,-476.5 585.9221,-482.5 579.9221,-488.5 573.9221,-488.5 573.9221,-488.5 527.9221,-488.5 527.9221,-488.5 521.9221,-488.5 515.9221,-482.5 515.9221,-476.5 515.9221,-476.5 515.9221,-449.5 515.9221,-449.5 515.9221,-443.5 521.9221,-437.5 527.9221,-437.5"/><text x="550.922" y="-477.3" fill="#000" font-family="Helvetica,sans-Serif" font-size="9" font-weight="bold" text-anchor="middle">transpile</text></g><g id="clust6" class="cluster"><title>cluster_/src/main</title><path fill="none" stroke="#000" stroke-width="2" d="M412.6431,-194.5C412.6431,-194.5 586.9294,-194.5 586.9294,-194.5 592.9294,-194.5 598.9294,-200.5 598.9294,-206.5 598.9294,-206.5 598.9294,-383.5 598.9294,-383.5 598.9294,-389.5 592.9294,-395.5 586.9294,-395.5 586.9294,-395.5 412.6431,-395.5 412.6431,-395.5 406.6431,-395.5 400.6431,-389.5 400.6431,-383.5 400.6431,-383.5 400.6431,-206.5 400.6431,-206.5 400.6431,-200.5 406.6431,-194.5 412.6431,-194.5"/><text x="499.786" y="-384.3" fill="#000" font-family="Helvetica,sans-Serif" font-size="9" font-weight="bold" text-anchor="middle">main</text></g><g id="clust8" class="cluster"><title>cluster_/src/main/ruleSet</title><path fill="none" stroke="#000" stroke-width="2" d="M522.9148,-290.5C522.9148,-290.5 578.9294,-290.5 578.9294,-290.5 584.9294,-290.5 590.9294,-296.5 590.9294,-302.5 590.9294,-302.5 590.9294,-358.5 590.9294,-358.5 590.9294,-364.5 584.9294,-370.5 578.9294,-370.5 578.9294,-370.5 522.9148,-370.5 522.9148,-370.5 516.9148,-370.5 510.9148,-364.5 510.9148,-358.5 510.9148,-358.5 510.9148,-302.5 510.9148,-302.5 510.9148,-296.5 516.9148,-290.5 522.9148,-290.5"/><text x="550.922" y="-359.3" fill="#000" font-family="Helvetica,sans-Serif" font-size="9" font-weight="bold" text-anchor="middle">ruleSet</text></g><g id="clust7" class="cluster"><title>cluster_/src/main/options</title><path fill="none" stroke="#000" stroke-width="2" d="M522.9148,-202.5C522.9148,-202.5 578.9294,-202.5 578.9294,-202.5 584.9294,-202.5 590.9294,-208.5 590.9294,-214.5 590.9294,-214.5 590.9294,-270.5 590.9294,-270.5 590.9294,-276.5 584.9294,-282.5 578.9294,-282.5 578.9294,-282.5 522.9148,-282.5 522.9148,-282.5 516.9148,-282.5 510.9148,-276.5 510.9148,-270.5 510.9148,-270.5 510.9148,-214.5 510.9148,-214.5 510.9148,-208.5 516.9148,-202.5 522.9148,-202.5"/><text x="550.922" y="-271.3" fill="#000" font-family="Helvetica,sans-Serif" font-size="9" font-weight="bold" text-anchor="middle">options</text></g><g id="clust9" class="cluster"><title>cluster_/src/report</title><path fill="none" stroke="#000" stroke-width="2" d="M516.6592,-521.5C516.6592,-521.5 585.1851,-521.5 585.1851,-521.5 591.1851,-521.5 597.1851,-527.5 597.1851,-533.5 597.1851,-533.5 597.1851,-676.5 597.1851,-676.5 597.1851,-682.5 591.1851,-688.5 585.1851,-688.5 585.1851,-688.5 516.6592,-688.5 516.6592,-688.5 510.6592,-688.5 504.6592,-682.5 504.6592,-676.5 504.6592,-676.5 504.6592,-533.5 504.6592,-533.5 504.6592,-527.5 510.6592,-521.5 516.6592,-521.5"/><text x="550.922" y="-677.3" fill="#000" font-family="Helvetica,sans-Serif" font-size="9" font-weight="bold" text-anchor="middle">report</text></g><g id="node1" class="node"><title>bin/dependency-cruise</title><g id="a_node1"><a xlink:href="bin/dependency-cruise" xlink:title="dependency-cruise"><path fill="#ffc" stroke="#000" d="M102.4044,-413C102.4044,-413 21.643,-413 21.643,-413 18.8096,-413 15.9763,-410.1667 15.9763,-407.3333 15.9763,-407.3333 15.9763,-401.6667 15.9763,-401.6667 15.9763,-398.8333 18.8096,-396 21.643,-396 21.643,-396 102.4044,-396 102.4044,-396 105.2377,-396 108.0711,-398.8333 108.0711,-401.6667 108.0711,-401.6667 108.0711,-407.3333 108.0711,-407.3333 108.0711,-410.1667 105.2377,-413 102.4044,-413"/><text x="62.024" y="-401.8" fill="#000" font-family="Helvetica,sans-Serif" font-size="9" text-anchor="middle">dependency-cruise</text></a></g></g><g id="node3" class="node"><title>package.json</title><g id="a_node3"><a xlink:href="package.json" xlink:title="package.json"><path fill="#ffc" stroke="#000" d="M207.4371,-739C207.4371,-739 149.6952,-739 149.6952,-739 146.8619,-739 144.0286,-736.1667 144.0286,-733.3333 144.0286,-733.3333 144.0286,-727.6667 144.0286,-727.6667 144.0286,-724.8333 146.8619,-722 149.6952,-722 149.6952,-722 207.4371,-722 207.4371,-722 210.2704,-722 213.1038,-724.8333 213.1038,-727.6667 213.1038,-727.6667 213.1038,-733.3333 213.1038,-733.3333 213.1038,-736.1667 210.2704,-739 207.4371,-739"/><text x="178.566" y="-727.8" fill="#000" font-family="Helvetica,sans-Serif" font-size="9" text-anchor="middle">package.json</text></a></g></g><g id="edge1" class="edge"><title>bin/dependency-cruise-&gt;package.json</title><path fill="none" stroke="#000" d="M65.1409,-413.2197C80.7142,-456.7824 150.2017,-651.157 172.0016,-712.1372"/><polygon fill="#000" stroke="#000" points="168.831 -713.667 175.493 -721.905 175.423 -711.31 168.831 -713.667"/></g><g id="node6" class="node"><title>src/cli/index.js</title><g id="a_node6"><a xlink:href="src/cli/index.js" xlink:title="index.js"><path fill="#ffc" stroke="#000" d="M199.8995,-128C199.8995,-128 157.2328,-128 157.2328,-128 154.3995,-128 151.5662,-125.1667 151.5662,-122.3333 151.5662,-122.3333 151.5662,-116.6667 151.5662,-116.6667 151.5662,-113.8333 154.3995,-111 157.2328,-111 157.2328,-111 199.8995,-111 199.8995,-111 202.7328,-111 205.5662,-113.8333 205.5662,-116.6667 205.5662,-116.6667 205.5662,-122.3333 205.5662,-122.3333 205.5662,-125.1667 202.7328,-128 199.8995,-128"/><text x="178.566" y="-116.8" fill="#000" font-family="Helvetica,sans-Serif" font-size="9" text-anchor="middle">index.js</text></a></g></g><g id="edge2" class="edge"><title>bin/dependency-cruise-&gt;src/cli/index.js</title><path fill="none" stroke="#000" d="M65.5116,-395.9705C81.5605,-356.7236 148.4845,-193.0636 171.0782,-137.8116"/><polygon fill="#000" stroke="#000" points="174.432 -138.856 174.978 -128.276 167.953 -136.207 174.432 -138.856"/></g><g id="node2" class="node"><title>fs</title><path fill="#ffc" stroke="silver" d="M456.9764,-17C456.9764,-17 414.3097,-17 414.3097,-17 411.4764,-17 408.6431,-14.1667 408.6431,-11.3333 408.6431,-11.3333 408.6431,-5.6667 408.6431,-5.6667 408.6431,-2.8333 411.4764,0 414.3097,0 414.3097,0 456.9764,0 456.9764,0 459.8097,0 462.6431,-2.8333 462.6431,-5.6667 462.6431,-5.6667 462.6431,-11.3333 462.6431,-11.3333 462.6431,-14.1667 459.8097,-17 456.9764,-17"/><text x="435.643" y="-5.8" fill="silver" font-family="Helvetica,sans-Serif" font-size="9" text-anchor="middle">fs</text></g><g id="node4" class="node"><title>src/cli/defaults.json</title><g id="a_node4"><a xlink:href="src/cli/defaults.json" xlink:title="defaults.json"><path fill="#ffc" stroke="#000" d="M463.0107,-128C463.0107,-128 408.2754,-128 408.2754,-128 405.4421,-128 402.6087,-125.1667 402.6087,-122.3333 402.6087,-122.3333 402.6087,-116.6667 402.6087,-116.6667 402.6087,-113.8333 405.4421,-111 408.2754,-111 408.2754,-111 463.0107,-111 463.0107,-111 465.8441,-111 468.6774,-113.8333 468.6774,-116.6667 468.6774,-116.6667 468.6774,-122.3333 468.6774,-122.3333 468.6774,-125.1667 465.8441,-128 463.0107,-128"/><text x="435.643" y="-116.8" fill="#000" font-family="Helvetica,sans-Serif" font-size="9" text-anchor="middle">defaults.json</text></a></g></g><g id="node5" class="node"><title>src/cli/formatMetaInfo.js</title><g id="a_node5"><a xlink:href="src/cli/formatMetaInfo.js" xlink:title="formatMetaInfo.js"><path fill="#ffc" stroke="#000" d="M340.7165,-161C340.7165,-161 266.9954,-161 266.9954,-161 264.1621,-161 261.3288,-158.1667 261.3288,-155.3333 261.3288,-155.3333 261.3288,-149.6667 261.3288,-149.6667 261.3288,-146.8333 264.1621,-144 266.9954,-144 266.9954,-144 340.7165,-144 340.7165,-144 343.5498,-144 346.3831,-146.8333 346.3831,-149.6667 346.3831,-149.6667 346.3831,-155.3333 346.3831,-155.3333 346.3831,-158.1667 343.5498,-161 340.7165,-161"/><text x="303.856" y="-149.8" fill="#000" font-family="Helvetica,sans-Serif" font-size="9" text-anchor="middle">formatMetaInfo.js</text></a></g></g><g id="node13" class="node"><title>src/main/index.js</title><g id="a_node13"><a xlink:href="src/main/index.js" xlink:title="index.js"><path fill="#ffc" stroke="#000" d="M456.9764,-370C456.9764,-370 414.3097,-370 414.3097,-370 411.4764,-370 408.6431,-367.1667 408.6431,-364.3333 408.6431,-364.3333 408.6431,-358.6667 408.6431,-358.6667 408.6431,-355.8333 411.4764,-353 414.3097,-353 414.3097,-353 456.9764,-353 456.9764,-353 459.8097,-353 462.6431,-355.8333 462.6431,-358.6667 462.6431,-358.6667 462.6431,-364.3333 462.6431,-364.3333 462.6431,-367.1667 459.8097,-370 456.9764,-370"/><text x="435.643" y="-358.8" fill="#000" font-family="Helvetica,sans-Serif" font-size="9" text-anchor="middle">index.js</text></a></g></g><g id="edge3" class="edge"><title>src/cli/formatMetaInfo.js-&gt;src/main/index.js</title><path fill="none" stroke="#000" d="M309.3509,-161.2144C329.2362,-192.7503 397.6902,-301.3108 424.628,-344.0313"/><polygon fill="#000" stroke="#000" points="421.83 -346.156 430.125 -352.748 427.751 -342.423 421.83 -346.156"/></g><g id="edge10" class="edge"><title>src/cli/index.js-&gt;fs</title><path fill="none" stroke="silver" d="M183.0346,-110.9287C192.5677,-93.5996 216.7,-54.5192 249.085,-36.5 295.8487,-10.4804 358.9191,-6.269 398.4285,-6.6269"/><polygon fill="silver" stroke="silver" points="398.362 -10.126 408.428 -6.82 398.497 -3.127 398.362 -10.126"/></g><g id="edge5" class="edge"><title>src/cli/index.js-&gt;src/cli/defaults.json</title><path fill="none" stroke="#000" d="M205.6753,-121.3977C218.7813,-122.2232 234.7436,-123.0936 249.085,-123.5 297.7508,-124.8791 309.958,-124.763 358.627,-123.5 369.4798,-123.2184 381.1842,-122.7138 392.1119,-122.1559"/><polygon fill="#000" stroke="#000" points="392.5 -125.64 402.298 -121.61 392.125 -118.65 392.5 -125.64"/></g><g id="edge6" class="edge"><title>src/cli/index.js-&gt;src/cli/formatMetaInfo.js</title><path fill="none" stroke="#000" d="M205.7522,-126.6605C222.0264,-130.947 243.0613,-136.4873 261.4773,-141.3379"/><polygon fill="#000" stroke="#000" points="260.83 -144.787 271.392 -143.949 262.613 -138.018 260.83 -144.787"/></g><g id="node7" class="node"><title>src/cli/initRules.js</title><g id="a_node7"><a xlink:href="src/cli/initRules.js" xlink:title="initRules.js"><path fill="#ffc" stroke="#000" d="M327.7059,-88C327.7059,-88 280.006,-88 280.006,-88 277.1727,-88 274.3393,-85.1667 274.3393,-82.3333 274.3393,-82.3333 274.3393,-76.6667 274.3393,-76.6667 274.3393,-73.8333 277.1727,-71 280.006,-71 280.006,-71 327.7059,-71 327.7059,-71 330.5392,-71 333.3726,-73.8333 333.3726,-76.6667 333.3726,-76.6667 333.3726,-82.3333 333.3726,-82.3333 333.3726,-85.1667 330.5392,-88 327.7059,-88"/><text x="303.856" y="-76.8" fill="#000" font-family="Helvetica,sans-Serif" font-size="9" text-anchor="middle">initRules.js</text></a></g></g><g id="edge7" class="edge"><title>src/cli/index.js-&gt;src/cli/initRules.js</title><path fill="none" stroke="#000" d="M201.2899,-110.9665C215.0398,-105.9226 232.973,-99.5548 249.085,-94.5 254.0148,-92.9534 259.2215,-91.4114 264.3852,-89.9369"/><polygon fill="#000" stroke="#000" points="265.488 -93.263 274.178 -87.201 263.605 -86.521 265.488 -93.263"/></g><g id="node8" class="node"><title>src/cli/normalizeOptions.js</title><g id="a_node8"><a xlink:href="src/cli/normalizeOptions.js" xlink:title="normalizeOptions.js"><path fill="#ffc" stroke="#000" d="M345.7205,-117C345.7205,-117 261.9914,-117 261.9914,-117 259.158,-117 256.3247,-114.1667 256.3247,-111.3333 256.3247,-111.3333 256.3247,-105.6667 256.3247,-105.6667 256.3247,-102.8333 259.158,-100 261.9914,-100 261.9914,-100 345.7205,-100 345.7205,-100 348.5539,-100 351.3872,-102.8333 351.3872,-105.6667 351.3872,-105.6667 351.3872,-111.3333 351.3872,-111.3333 351.3872,-114.1667 348.5539,-117 345.7205,-117"/><text x="303.856" y="-105.8" fill="#000" font-family="Helvetica,sans-Serif" font-size="9" text-anchor="middle">normalizeOptions.js</text></a></g></g><g id="edge8" class="edge"><title>src/cli/index.js-&gt;src/cli/normalizeOptions.js</title><path fill="none" stroke="#000" d="M205.7522,-117.1132C217.5665,-116.0759 231.8898,-114.8184 245.8986,-113.5885"/><polygon fill="#000" stroke="#000" points="246.348 -117.063 256.003 -112.701 245.736 -110.089 246.348 -117.063"/></g><g id="node10" class="node"><title>src/cli/validateFileExistence.js</title><g id="a_node10"><a xlink:href="src/cli/validateFileExistence.js" xlink:title="validateFileExistence.js"><path fill="#ffc" stroke="#000" d="M352.7322,-59C352.7322,-59 254.9797,-59 254.9797,-59 252.1463,-59 249.313,-56.1667 249.313,-53.3333 249.313,-53.3333 249.313,-47.6667 249.313,-47.6667 249.313,-44.8333 252.1463,-42 254.9797,-42 254.9797,-42 352.7322,-42 352.7322,-42 355.5656,-42 358.3989,-44.8333 358.3989,-47.6667 358.3989,-47.6667 358.3989,-53.3333 358.3989,-53.3333 358.3989,-56.1667 355.5656,-59 352.7322,-59"/><text x="303.856" y="-47.8" fill="#000" font-family="Helvetica,sans-Serif" font-size="9" text-anchor="middle">validateFileExistence.js</text></a></g></g><g id="edge9" class="edge"><title>src/cli/index.js-&gt;src/cli/validateFileExistence.js</title><path fill="none" stroke="#000" d="M187.3683,-110.9121C200.0077,-99.0384 224.4954,-77.6954 249.085,-65.5 251.2089,-64.4466 253.417,-63.4588 255.6749,-62.5335"/><polygon fill="#000" stroke="#000" points="256.956 -65.792 265.148 -59.074 254.554 -59.217 256.956 -65.792"/></g><g id="edge4" class="edge"><title>src/cli/index.js-&gt;src/main/index.js</title><path fill="none" stroke="#000" d="M187.7157,-128.1129C225.5108,-163.6914 369.7903,-299.5094 419.0475,-345.8777"/><polygon fill="#000" stroke="#000" points="416.923 -348.684 426.603 -352.99 421.721 -343.587 416.923 -348.684"/></g><g id="edge12" class="edge"><title>src/cli/initRules.js-&gt;fs</title><path fill="none" stroke="silver" d="M333.642,-74.8513C342.0653,-72.7634 351.0069,-69.7702 358.627,-65.5 378.094,-54.5909 376.6195,-43.6797 394.627,-30.5 398.8389,-27.4173 403.5366,-24.4896 408.2068,-21.835"/><polygon fill="silver" stroke="silver" points="409.868 -24.916 417.019 -17.098 406.554 -18.75 409.868 -24.916"/></g><g id="node9" class="node"><title>src/cli/rules.starter.json</title><g id="a_node9"><a xlink:href="src/cli/rules.starter.json" xlink:title="rules.starter.json"><path fill="#ffc" stroke="#000" d="M471.0086,-88C471.0086,-88 400.2775,-88 400.2775,-88 397.4442,-88 394.6108,-85.1667 394.6108,-82.3333 394.6108,-82.3333 394.6108,-76.6667 394.6108,-76.6667 394.6108,-73.8333 397.4442,-71 400.2775,-71 400.2775,-71 471.0086,-71 471.0086,-71 473.842,-71 476.6753,-73.8333 476.6753,-76.6667 476.6753,-76.6667 476.6753,-82.3333 476.6753,-82.3333 476.6753,-85.1667 473.842,-88 471.0086,-88"/><text x="435.643" y="-76.8" fill="#000" font-family="Helvetica,sans-Serif" font-size="9" text-anchor="middle">rules.starter.json</text></a></g></g><g id="edge11" class="edge"><title>src/cli/initRules.js-&gt;src/cli/rules.starter.json</title><path fill="none" stroke="#000" d="M333.4316,-79.5C348.326,-79.5 366.8207,-79.5 383.9668,-79.5"/><polygon fill="#000" stroke="#000" points="384.424 -83 394.424 -79.5 384.424 -76 384.424 -83"/></g><g id="edge14" class="edge"><title>src/cli/normalizeOptions.js-&gt;fs</title><path fill="none" stroke="silver" d="M349.7417,-99.8878C352.8972,-98.3714 355.9013,-96.5907 358.627,-94.5 384.5219,-74.6371 371.3197,-53.3442 394.627,-30.5 397.7432,-27.4457 401.3698,-24.701 405.1527,-22.2713"/><polygon fill="silver" stroke="silver" points="407.14 -25.167 414.097 -17.176 403.675 -19.085 407.14 -25.167"/></g><g id="edge13" class="edge"><title>src/cli/normalizeOptions.js-&gt;src/cli/defaults.json</title><path fill="none" stroke="#000" d="M351.4341,-112.4713C364.8146,-113.5881 379.2897,-114.7963 392.4021,-115.8908"/><polygon fill="#000" stroke="#000" points="392.322 -119.396 402.579 -116.74 392.905 -112.421 392.322 -119.396"/></g><g id="edge15" class="edge"><title>src/cli/validateFileExistence.js-&gt;fs</title><path fill="none" stroke="silver" d="M330.8431,-41.8993C350.4758,-35.6424 377.2877,-27.0976 398.877,-20.2172"/><polygon fill="silver" stroke="silver" points="400.227 -23.46 408.692 -17.089 398.101 -16.791 400.227 -23.46"/></g><g id="node11" class="node"><title>src/extract/index.js</title><g id="a_node11"><a xlink:href="src/extract/index.js" xlink:title="index.js"><path fill="#ffc" stroke="#000" d="M572.2555,-429C572.2555,-429 529.5888,-429 529.5888,-429 526.7555,-429 523.9221,-426.1667 523.9221,-423.3333 523.9221,-423.3333 523.9221,-417.6667 523.9221,-417.6667 523.9221,-414.8333 526.7555,-412 529.5888,-412 529.5888,-412 572.2555,-412 572.2555,-412 575.0888,-412 577.9221,-414.8333 577.9221,-417.6667 577.9221,-417.6667 577.9221,-423.3333 577.9221,-423.3333 577.9221,-426.1667 575.0888,-429 572.2555,-429"/><text x="550.922" y="-417.8" fill="#000" font-family="Helvetica,sans-Serif" font-size="9" text-anchor="middle">index.js</text></a></g></g><g id="node12" class="node"><title>src/extract/transpile/meta.js</title><g id="a_node12"><a xlink:href="src/extract/transpile/meta.js" xlink:title="meta.js"><path fill="#ffc" stroke="#000" d="M572.2555,-463C572.2555,-463 529.5888,-463 529.5888,-463 526.7555,-463 523.9221,-460.1667 523.9221,-457.3333 523.9221,-457.3333 523.9221,-451.6667 523.9221,-451.6667 523.9221,-448.8333 526.7555,-446 529.5888,-446 529.5888,-446 572.2555,-446 572.2555,-446 575.0888,-446 577.9221,-448.8333 577.9221,-451.6667 577.9221,-451.6667 577.9221,-457.3333 577.9221,-457.3333 577.9221,-460.1667 575.0888,-463 572.2555,-463"/><text x="550.922" y="-451.8" fill="#000" font-family="Helvetica,sans-Serif" font-size="9" text-anchor="middle">meta.js</text></a></g></g><g id="edge16" class="edge"><title>src/main/index.js-&gt;src/extract/index.js</title><path fill="none" stroke="#000" d="M452.6529,-370.2057C471.7478,-379.9785 502.9469,-395.9462 525.0639,-407.2657"/><polygon fill="#000" stroke="#000" points="523.721 -410.51 534.217 -411.95 526.91 -404.279 523.721 -410.51"/></g><g id="edge17" class="edge"><title>src/main/index.js-&gt;src/extract/transpile/meta.js</title><path fill="none" stroke="#000" d="M440.4813,-370.1047C450.3107,-386.7697 474.2821,-423.4782 504.6592,-442.5 507.6326,-444.3619 510.8859,-445.9362 514.2453,-447.267"/><polygon fill="#000" stroke="#000" points="513.258 -450.626 523.85 -450.409 515.434 -443.973 513.258 -450.626"/></g><g id="node14" class="node"><title>src/main/options/normalize.js</title><g id="a_node14"><a xlink:href="src/main/options/normalize.js" xlink:title="normalize.js"><path fill="#ffc" stroke="#000" d="M577.2701,-228C577.2701,-228 524.5741,-228 524.5741,-228 521.7408,-228 518.9075,-225.1667 518.9075,-222.3333 518.9075,-222.3333 518.9075,-216.6667 518.9075,-216.6667 518.9075,-213.8333 521.7408,-211 524.5741,-211 524.5741,-211 577.2701,-211 577.2701,-211 580.1034,-211 582.9368,-213.8333 582.9368,-216.6667 582.9368,-216.6667 582.9368,-222.3333 582.9368,-222.3333 582.9368,-225.1667 580.1034,-228 577.2701,-228"/><text x="550.922" y="-216.8" fill="#000" font-family="Helvetica,sans-Serif" font-size="9" text-anchor="middle">normalize.js</text></a></g></g><g id="edge23" class="edge"><title>src/main/index.js-&gt;src/main/options/normalize.js</title><path fill="none" stroke="#000" d="M437.8694,-352.9712C444.2401,-330.2433 464.7056,-267.6956 504.6592,-234.5 506.2178,-233.205 507.8908,-232.021 509.643,-230.9385"/><polygon fill="#000" stroke="#000" points="511.51 -233.919 518.902 -226.329 508.39 -227.653 511.51 -233.919"/></g><g id="node15" class="node"><title>src/main/options/validate.js</title><g id="a_node15"><a xlink:href="src/main/options/validate.js" xlink:title="validate.js"><path fill="#ffc" stroke="#000" d="M573.2765,-257C573.2765,-257 528.5678,-257 528.5678,-257 525.7345,-257 522.9011,-254.1667 522.9011,-251.3333 522.9011,-251.3333 522.9011,-245.6667 522.9011,-245.6667 522.9011,-242.8333 525.7345,-240 528.5678,-240 528.5678,-240 573.2765,-240 573.2765,-240 576.1098,-240 578.9431,-242.8333 578.9431,-245.6667 578.9431,-245.6667 578.9431,-251.3333 578.9431,-251.3333 578.9431,-254.1667 576.1098,-257 573.2765,-257"/><text x="550.922" y="-245.8" fill="#000" font-family="Helvetica,sans-Serif" font-size="9" text-anchor="middle">validate.js</text></a></g></g><g id="edge24" class="edge"><title>src/main/index.js-&gt;src/main/options/validate.js</title><path fill="none" stroke="#000" d="M442.9908,-352.9783C455.2776,-338.879 480.9821,-310.0187 504.6592,-287.5 513.3368,-279.2469 523.46,-270.6104 532.0206,-263.5686"/><polygon fill="#000" stroke="#000" points="534.391 -266.152 539.949 -257.132 529.979 -260.718 534.391 -266.152"/></g><g id="node16" class="node"><title>src/main/ruleSet/normalize.js</title><g id="a_node16"><a xlink:href="src/main/ruleSet/normalize.js" xlink:title="normalize.js"><path fill="#ffc" stroke="#000" d="M577.2701,-316C577.2701,-316 524.5741,-316 524.5741,-316 521.7408,-316 518.9075,-313.1667 518.9075,-310.3333 518.9075,-310.3333 518.9075,-304.6667 518.9075,-304.6667 518.9075,-301.8333 521.7408,-299 524.5741,-299 524.5741,-299 577.2701,-299 577.2701,-299 580.1034,-299 582.9368,-301.8333 582.9368,-304.6667 582.9368,-304.6667 582.9368,-310.3333 582.9368,-310.3333 582.9368,-313.1667 580.1034,-316 577.2701,-316"/><text x="550.922" y="-304.8" fill="#000" font-family="Helvetica,sans-Serif" font-size="9" text-anchor="middle">normalize.js</text></a></g></g><g id="edge25" class="edge"><title>src/main/index.js-&gt;src/main/ruleSet/normalize.js</title><path fill="none" stroke="#000" d="M448.975,-352.8967C462.5794,-344.3772 484.4987,-331.3571 504.6592,-322.5 506.9589,-321.4896 509.349,-320.5116 511.7772,-319.5719"/><polygon fill="#000" stroke="#000" points="513.012 -322.847 521.222 -316.151 510.628 -316.266 513.012 -322.847"/></g><g id="node17" class="node"><title>src/main/ruleSet/validate.js</title><g id="a_node17"><a xlink:href="src/main/ruleSet/validate.js" xlink:title="validate.js"><path fill="#ffc" stroke="#000" d="M573.2765,-345C573.2765,-345 528.5678,-345 528.5678,-345 525.7345,-345 522.9011,-342.1667 522.9011,-339.3333 522.9011,-339.3333 522.9011,-333.6667 522.9011,-333.6667 522.9011,-330.8333 525.7345,-328 528.5678,-328 528.5678,-328 573.2765,-328 573.2765,-328 576.1098,-328 578.9431,-330.8333 578.9431,-333.6667 578.9431,-333.6667 578.9431,-339.3333 578.9431,-339.3333 578.9431,-342.1667 576.1098,-345 573.2765,-345"/><text x="550.922" y="-333.8" fill="#000" font-family="Helvetica,sans-Serif" font-size="9" text-anchor="middle">validate.js</text></a></g></g><g id="edge26" class="edge"><title>src/main/index.js-&gt;src/main/ruleSet/validate.js</title><path fill="none" stroke="#000" d="M462.6709,-355.6386C477.661,-352.3878 496.5425,-348.293 512.99,-344.7261"/><polygon fill="#000" stroke="#000" points="513.829 -348.126 522.86 -342.586 512.345 -341.285 513.829 -348.126"/></g><g id="node18" class="node"><title>src/report/csvReporter.js</title><g id="a_node18"><a xlink:href="src/report/csvReporter.js" xlink:title="csvReporter.js"><path fill="#ffc" stroke="#000" d="M581.7789,-576C581.7789,-576 520.0653,-576 520.0653,-576 517.232,-576 514.3987,-573.1667 514.3987,-570.3333 514.3987,-570.3333 514.3987,-564.6667 514.3987,-564.6667 514.3987,-561.8333 517.232,-559 520.0653,-559 520.0653,-559 581.7789,-559 581.7789,-559 584.6122,-559 587.4456,-561.8333 587.4456,-564.6667 587.4456,-564.6667 587.4456,-570.3333 587.4456,-570.3333 587.4456,-573.1667 584.6122,-576 581.7789,-576"/><text x="550.922" y="-564.8" fill="#000" font-family="Helvetica,sans-Serif" font-size="9" text-anchor="middle">csvReporter.js</text></a></g></g><g id="edge18" class="edge"><title>src/main/index.js-&gt;src/report/csvReporter.js</title><path fill="none" stroke="#000" d="M436.1088,-370.2379C438.1917,-400.3444 449.1906,-500.8021 504.6592,-553.5 505.009,-553.8323 505.3664,-554.1568 505.731,-554.4736"/><polygon fill="#000" stroke="#000" points="503.971 -557.505 514.253 -560.061 507.809 -551.651 503.971 -557.505"/></g><g id="node19" class="node"><title>src/report/dotReporter.js</title><g id="a_node19"><a xlink:href="src/report/dotReporter.js" xlink:title="dotReporter.js"><path fill="#ffc" stroke="#000" d="M581.2901,-547C581.2901,-547 520.5541,-547 520.5541,-547 517.7208,-547 514.8874,-544.1667 514.8874,-541.3333 514.8874,-541.3333 514.8874,-535.6667 514.8874,-535.6667 514.8874,-532.8333 517.7208,-530 520.5541,-530 520.5541,-530 581.2901,-530 581.2901,-530 584.1235,-530 586.9568,-532.8333 586.9568,-535.6667 586.9568,-535.6667 586.9568,-541.3333 586.9568,-541.3333 586.9568,-544.1667 584.1235,-547 581.2901,-547"/><text x="550.922" y="-535.8" fill="#000" font-family="Helvetica,sans-Serif" font-size="9" text-anchor="middle">dotReporter.js</text></a></g></g><g id="edge19" class="edge"><title>src/main/index.js-&gt;src/report/dotReporter.js</title><path fill="none" stroke="#000" d="M439.2132,-370.2092C448.3096,-391.8719 473.8316,-449.4647 504.6592,-491.5 513.0383,-502.9255 524.127,-514.2875 533.3476,-522.9776"/><polygon fill="#000" stroke="#000" points="531.119 -525.682 540.855 -529.861 535.85 -520.523 531.119 -525.682"/></g><g id="node20" class="node"><title>src/report/errReporter.js</title><g id="a_node20"><a xlink:href="src/report/errReporter.js" xlink:title="errReporter.js"><path fill="#ffc" stroke="#000" d="M580.28,-663C580.28,-663 521.5642,-663 521.5642,-663 518.7309,-663 515.8976,-660.1667 515.8976,-657.3333 515.8976,-657.3333 515.8976,-651.6667 515.8976,-651.6667 515.8976,-648.8333 518.7309,-646 521.5642,-646 521.5642,-646 580.28,-646 580.28,-646 583.1133,-646 585.9467,-648.8333 585.9467,-651.6667 585.9467,-651.6667 585.9467,-657.3333 585.9467,-657.3333 585.9467,-660.1667 583.1133,-663 580.28,-663"/><text x="550.922" y="-651.8" fill="#000" font-family="Helvetica,sans-Serif" font-size="9" text-anchor="middle">errReporter.js</text></a></g></g><g id="edge20" class="edge"><title>src/main/index.js-&gt;src/report/errReporter.js</title><path fill="none" stroke="#000" d="M436.6308,-370.1285C441.6631,-412.6535 465.7404,-599.5294 504.6592,-640.5 505.4394,-641.3213 506.266,-642.095 507.1319,-642.8237"/><polygon fill="#000" stroke="#000" points="505.461 -645.907 515.795 -648.243 509.173 -639.972 505.461 -645.907"/></g><g id="node21" class="node"><title>src/report/htmlReporter.js</title><g id="a_node21"><a xlink:href="src/report/htmlReporter.js" xlink:title="htmlReporter.js"><path fill="#ffc" stroke="#000" d="M583.2828,-634C583.2828,-634 518.5614,-634 518.5614,-634 515.7281,-634 512.8948,-631.1667 512.8948,-628.3333 512.8948,-628.3333 512.8948,-622.6667 512.8948,-622.6667 512.8948,-619.8333 515.7281,-617 518.5614,-617 518.5614,-617 583.2828,-617 583.2828,-617 586.1161,-617 588.9495,-619.8333 588.9495,-622.6667 588.9495,-622.6667 588.9495,-628.3333 588.9495,-628.3333 588.9495,-631.1667 586.1161,-634 583.2828,-634"/><text x="550.922" y="-622.8" fill="#000" font-family="Helvetica,sans-Serif" font-size="9" text-anchor="middle">htmlReporter.js</text></a></g></g><g id="edge21" class="edge"><title>src/main/index.js-&gt;src/report/htmlReporter.js</title><path fill="none" stroke="#000" d="M436.8778,-370.0151C442.7781,-409.6006 469.2824,-575.2457 504.6592,-611.5 504.8057,-611.6501 504.9538,-611.7987 505.1033,-611.9457"/><polygon fill="#000" stroke="#000" points="502.576 -614.431 512.701 -617.549 506.731 -608.797 502.576 -614.431"/></g><g id="node22" class="node"><title>src/report/jsonReporter.js</title><g id="a_node22"><a xlink:href="src/report/jsonReporter.js" xlink:title="jsonReporter.js"><path fill="#ffc" stroke="#000" d="M583.2892,-605C583.2892,-605 518.5551,-605 518.5551,-605 515.7218,-605 512.8884,-602.1667 512.8884,-599.3333 512.8884,-599.3333 512.8884,-593.6667 512.8884,-593.6667 512.8884,-590.8333 515.7218,-588 518.5551,-588 518.5551,-588 583.2892,-588 583.2892,-588 586.1225,-588 588.9558,-590.8333 588.9558,-593.6667 588.9558,-593.6667 588.9558,-599.3333 588.9558,-599.3333 588.9558,-602.1667 586.1225,-605 583.2892,-605"/><text x="550.922" y="-593.8" fill="#000" font-family="Helvetica,sans-Serif" font-size="9" text-anchor="middle">jsonReporter.js</text></a></g></g><g id="edge22" class="edge"><title>src/main/index.js-&gt;src/report/jsonReporter.js</title><path fill="none" stroke="#000" d="M437.295,-370.4972C444.3409,-407.9618 472.9711,-551.0907 504.6592,-582.5 504.8082,-582.6477 504.9587,-582.7938 505.1106,-582.9384"/><polygon fill="#000" stroke="#000" points="502.626 -585.462 512.786 -588.465 506.716 -579.782 502.626 -585.462"/></g></g></svg>