<svg xmlns="http://www.w3.org/2000/svg" xmlns:xlink="http://www.w3.org/1999/xlink" width="492" height="332" viewBox="0 0 369 249"><g id="graph0" class="graph" transform="scale(1 1) rotate(0) translate(4 245)"><title>dependency-cruiser output</title><polygon fill="#fff" stroke="transparent" points="-4 4 -4 -245 365 -245 365 4 -4 4"/><g id="clust1" class="cluster"><title>cluster_src</title><path fill="#fff" stroke="#000" stroke-width="2" d="M20,-8C20,-8 334,-8 334,-8 340,-8 346,-14 346,-20 346,-20 346,-203 346,-203 346,-209 340,-215 334,-215 334,-215 20,-215 20,-215 14,-215 8,-209 8,-203 8,-203 8,-20 8,-20 8,-14 14,-8 20,-8"/><text x="177" y="-203.8" font-family="Helvetica,sans-Serif" font-size="9" font-weight="bold" text-anchor="middle">src</text></g><g id="node1" class="node"><title>bin/</title><g id="a_node1"><a xlink:href="https://github.com/sverweij/dependency-cruiser/blob/develop/bin/" xlink:title="bin"><polygon fill="#ffc" stroke="#000" points="361 -241 309 -241 307 -239 307 -223 359 -223 361 -225 361 -241"/><polyline fill="none" stroke="#000" points="359 -239 307 -239"/><polyline fill="none" stroke="#000" points="359 -239 359 -223"/><polyline fill="none" stroke="#000" points="359 -239 361 -241"/><text x="334" y="-229.8" font-family="Helvetica,sans-Serif" font-size="9" text-anchor="middle">bin</text></a></g></g><g id="node2" class="node"><title>src/cli</title><g id="a_node2"><a xlink:href="https://github.com/sverweij/dependency-cruiser/blob/develop/src/cli" xlink:title="not-reachable-from-folder-index"><polygon fill="#ccf" stroke="#00f" points="338 -189 286 -189 284 -187 284 -171 336 -171 338 -173 338 -189"/><polyline fill="none" stroke="#00f" points="336 -187 284 -187"/><polyline fill="none" stroke="#00f" points="336 -187 336 -171"/><polyline fill="none" stroke="#00f" points="336 -187 338 -189"/><text x="311" y="-177.8" fill="#00f" font-family="Helvetica,sans-Serif" font-size="9" text-anchor="middle">cli</text></a></g></g><g id="edge1" class="edge"><title>bin/-&gt;src/cli</title><path fill="none" stroke="#00f" stroke-opacity=".467" stroke-width="2" d="M322.5,-222.94C322.5,-222.94 322.5,-195.3 322.5,-195.3"/><polygon fill="#00f" fill-opacity=".467" stroke="#00f" stroke-opacity=".467" stroke-width="2" points="324.6 -195.3 322.5 -189.3 320.4 -195.3 324.6 -195.3"/></g><g id="node3" class="node"><title>src/meta.js</title><g id="a_node3"><a xlink:href="https://github.com/sverweij/dependency-cruiser/blob/develop/src/meta.js" xlink:title="meta.js"><polygon fill="#ffc" stroke="#000" points="324 -65 270 -65 270 -47 324 -47 324 -65"/><text x="297" y="-53.8" font-family="Helvetica,sans-Serif" font-size="9" text-anchor="middle">meta.js</text></a></g></g><g id="edge2" class="edge"><title>bin/-&gt;src/meta.js</title><path fill="none" stroke="#000" stroke-opacity=".2" stroke-width="2" d="M349.5,-222.54C349.5,-185.98 349.5,-56 349.5,-56 349.5,-56 330.17,-56 330.17,-56"/><polygon fill="#000" fill-opacity=".2" stroke="#000" stroke-opacity=".2" stroke-width="2" points="330.17 -53.9 324.17 -56 330.17 -58.1 330.17 -53.9"/></g><g id="edge5" class="edge"><title>src/cli-&gt;src/meta.js</title><path fill="none" stroke="#000" stroke-opacity=".2" stroke-width="2" d="M318.4,-170.68C318.4,-170.68 318.4,-71.09 318.4,-71.09"/><polygon fill="#000" fill-opacity=".2" stroke="#000" stroke-opacity=".2" stroke-width="2" points="320.5 -71.09 318.4 -65.09 316.3 -71.09 320.5 -71.09"/></g><g id="node4" class="node"><title>src/main</title><g id="a_node4"><a xlink:href="https://github.com/sverweij/dependency-cruiser/blob/develop/src/main" xlink:title="main"><polygon fill="#fcc" stroke="#000" points="200 -127 148 -127 146 -125 146 -109 198 -109 200 -111 200 -127"/><polyline fill="none" stroke="#000" points="198 -125 146 -125"/><polyline fill="none" stroke="#000" points="198 -125 198 -109"/><polyline fill="none" stroke="#000" points="198 -125 200 -127"/><text x="173" y="-115.8" font-family="Helvetica,sans-Serif" font-size="9" text-anchor="middle">main</text></a></g></g><g id="edge3" class="edge"><title>src/cli-&gt;src/main</title><path fill="none" stroke="#700" stroke-opacity=".467" stroke-width="2" d="M312.8,-170.78C312.8,-154.19 312.8,-121 312.8,-121 312.8,-121 206.29,-121 206.29,-121"/><polygon fill="#700" fill-opacity=".467" stroke="#700" stroke-opacity=".467" stroke-width="2" points="206.29 -118.9 200.29 -121 206.29 -123.1 206.29 -118.9"/></g><g id="node5" class="node"><title>src/config-utl</title><g id="a_node5"><a xlink:href="https://github.com/sverweij/dependency-cruiser/blob/develop/src/config-utl" xlink:title="config-utl"><polygon fill="#9ff" stroke="#000" points="290 -158 238 -158 236 -156 236 -140 288 -140 290 -142 290 -158"/><polyline fill="none" stroke="#000" points="288 -156 236 -156"/><polyline fill="none" stroke="#000" points="288 -156 288 -140"/><polyline fill="none" stroke="#000" points="288 -156 290 -158"/><text x="263" y="-146.8" font-family="Helvetica,sans-Serif" font-size="9" text-anchor="middle">config-utl</text></a></g></g><g id="edge4" class="edge"><title>src/cli-&gt;src/config-utl</title><path fill="none" stroke="#299" stroke-opacity=".467" stroke-width="2" d="M307.2,-170.83C307.2,-162.67 307.2,-152 307.2,-152 307.2,-152 296.24,-152 296.24,-152"/><polygon fill="#299" fill-opacity=".467" stroke="#299" stroke-opacity=".467" stroke-width="2" points="296.24 -149.9 290.24 -152 296.24 -154.1 296.24 -149.9"/></g><g id="node6" class="node"><title>src/utl</title><g id="a_node6"><a xlink:href="https://github.com/sverweij/dependency-cruiser/blob/develop/src/utl" xlink:title="utl-module-not-shared-enough"><polygon fill="#ccc" stroke="#00f" points="217 -34 165 -34 163 -32 163 -16 215 -16 217 -18 217 -34"/><polyline fill="none" stroke="#00f" points="215 -32 163 -32"/><polyline fill="none" stroke="#00f" points="215 -32 215 -16"/><polyline fill="none" stroke="#00f" points="215 -32 217 -34"/><text x="190" y="-22.8" fill="#00f" font-family="Helvetica,sans-Serif" font-size="9" text-anchor="middle">utl</text></a></g></g><g id="edge6" class="edge"><title>src/cli-&gt;src/utl</title><path fill="none" stroke="#aaa" stroke-opacity=".467" stroke-width="2" d="M331,-170.59C331,-136.58 331,-22 331,-22 331,-22 223.19,-22 223.19,-22"/><polygon fill="#aaa" fill-opacity=".467" stroke="#aaa" stroke-opacity=".467" stroke-width="2" points="223.19 -19.9 217.19 -22 223.19 -24.1 223.19 -19.9"/></g><g id="edge19" class="edge"><title>src/main-&gt;src/utl</title><path fill="none" stroke="#aaa" stroke-opacity=".467" stroke-width="2" d="M169.14,-108.74C169.14,-108.74 169.14,-40.22 169.14,-40.22"/><polygon fill="#aaa" fill-opacity=".467" stroke="#aaa" stroke-opacity=".467" stroke-width="2" points="171.24 -40.22 169.14 -34.22 167.04 -40.22 171.24 -40.22"/></g><g id="node7" class="node"><title>src/extract</title><g id="a_node7"><a xlink:href="https://github.com/sverweij/dependency-cruiser/blob/develop/src/extract" xlink:title="extract"><polygon fill="#cfc" stroke="#000" points="230 -96 178 -96 176 -94 176 -78 228 -78 230 -80 230 -96"/><polyline fill="none" stroke="#000" points="228 -94 176 -94"/><polyline fill="none" stroke="#000" points="228 -94 228 -78"/><polyline fill="none" stroke="#000" points="228 -94 230 -96"/><text x="203" y="-84.8" font-family="Helvetica,sans-Serif" font-size="9" text-anchor="middle">extract</text></a></g></g><g id="edge17" class="edge"><title>src/main-&gt;src/extract</title><path fill="none" stroke="#070" stroke-opacity=".467" stroke-width="2" d="M188,-108.87C188,-108.87 188,-102.18 188,-102.18"/><polygon fill="#070" fill-opacity=".467" stroke="#070" stroke-opacity=".467" stroke-width="2" points="190.1 -102.18 188 -96.18 185.9 -102.18 190.1 -102.18"/></g><g id="node8" class="node"><title>src/enrich</title><g id="a_node8"><a xlink:href="https://github.com/sverweij/dependency-cruiser/blob/develop/src/enrich" xlink:title="enrich"><polygon fill="#7ea" stroke="#000" points="150 -96 98 -96 96 -94 96 -78 148 -78 150 -80 150 -96"/><polyline fill="none" stroke="#000" points="148 -94 96 -94"/><polyline fill="none" stroke="#000" points="148 -94 148 -78"/><polyline fill="none" stroke="#000" points="148 -94 150 -96"/><text x="123" y="-84.8" font-family="Helvetica,sans-Serif" font-size="9" text-anchor="middle">enrich</text></a></g></g><g id="edge16" class="edge"><title>src/main-&gt;src/enrich</title><path fill="none" stroke="#076" stroke-opacity=".467" stroke-width="2" d="M157,-108.84C157,-100.01 157,-88 157,-88 157,-88 156.12,-88 156.12,-88"/><polygon fill="#076" fill-opacity=".467" stroke="#076" stroke-opacity=".467" stroke-width="2" points="156.12 -85.9 150.12 -88 156.12 -90.1 156.12 -85.9"/></g><g id="node9" class="node"><title>src/graph-utl</title><g id="a_node9"><a xlink:href="https://github.com/sverweij/dependency-cruiser/blob/develop/src/graph-utl" xlink:title="graph-utl"><polygon fill="#fcc" stroke="#000" points="230 -65 178 -65 176 -63 176 -47 228 -47 230 -49 230 -65"/><polyline fill="none" stroke="#000" points="228 -63 176 -63"/><polyline fill="none" stroke="#000" points="228 -63 228 -47"/><polyline fill="none" stroke="#000" points="228 -63 230 -65"/><text x="203" y="-53.8" font-family="Helvetica,sans-Serif" font-size="9" text-anchor="middle">graph-utl</text></a></g></g><g id="edge21" class="edge"><title>src/main-&gt;src/graph-utl</title><path fill="none" stroke="#700" stroke-opacity=".467" stroke-width="2" d="M172.57,-108.94C172.57,-92.62 172.57,-60 172.57,-60 172.57,-60 172.9,-60 172.9,-60"/><polygon fill="#700" fill-opacity=".467" stroke="#700" stroke-opacity=".467" stroke-width="2" points="169.83 -62.1 175.83 -60 169.83 -57.9 169.83 -62.1"/></g><g id="node11" class="node"><title>src/schema</title><g id="a_node11"><a xlink:href="https://github.com/sverweij/dependency-cruiser/blob/develop/src/schema" xlink:title="schema"><polygon fill="#ffc" stroke="#000" points="70 -96 18 -96 16 -94 16 -78 68 -78 70 -80 70 -96"/><polyline fill="none" stroke="#000" points="68 -94 16 -94"/><polyline fill="none" stroke="#000" points="68 -94 68 -78"/><polyline fill="none" stroke="#000" points="68 -94 70 -96"/><text x="43" y="-84.8" font-family="Helvetica,sans-Serif" font-size="9" text-anchor="middle">schema</text></a></g></g><g id="edge18" class="edge"><title>src/main-&gt;src/schema</title><path fill="none" stroke="#000" stroke-opacity=".2" stroke-width="2" d="M145.75,-118C107.63,-118 43,-118 43,-118 43,-118 43,-102.13 43,-102.13"/><polygon fill="#000" fill-opacity=".2" stroke="#000" stroke-opacity=".2" stroke-width="2" points="45.1 -102.13 43 -96.13 40.9 -102.13 45.1 -102.13"/></g><g id="node12" class="node"><title>src/report</title><g id="a_node12"><a xlink:href="https://github.com/sverweij/dependency-cruiser/blob/develop/src/report" xlink:title="report"><polygon fill="#fcf" stroke="#000" points="296 -96 244 -96 242 -94 242 -78 294 -78 296 -80 296 -96"/><polyline fill="none" stroke="#000" points="294 -94 242 -94"/><polyline fill="none" stroke="#000" points="294 -94 294 -78"/><polyline fill="none" stroke="#000" points="294 -94 296 -96"/><text x="269" y="-84.8" font-family="Helvetica,sans-Serif" font-size="9" text-anchor="middle">report</text></a></g></g><g id="edge20" class="edge"><title>src/main-&gt;src/report</title><path fill="none" stroke="#f0f" stroke-opacity=".467" stroke-width="2" d="M200.4,-115C227.83,-115 266,-115 266,-115 266,-115 266,-102.17 266,-102.17"/><polygon fill="#f0f" fill-opacity=".467" stroke="#f0f" stroke-opacity=".467" stroke-width="2" points="268.1 -102.17 266 -96.17 263.9 -102.17 268.1 -102.17"/></g><g id="edge9" class="edge"><title>src/config-utl-&gt;src/meta.js</title><path fill="none" stroke="#000" stroke-opacity=".2" stroke-width="2" d="M290.23,-146C296.61,-146 301.6,-146 301.6,-146 301.6,-146 301.6,-71.29 301.6,-71.29"/><polygon fill="#000" fill-opacity=".2" stroke="#000" stroke-opacity=".2" stroke-width="2" points="303.7 -71.29 301.6 -65.29 299.5 -71.29 303.7 -71.29"/></g><g id="edge8" class="edge"><title>src/config-utl-&gt;src/main</title><path fill="none" stroke="#700" stroke-opacity=".467" stroke-width="2" d="M236,-152C209.49,-152 173,-152 173,-152 173,-152 173,-133.29 173,-133.29"/><polygon fill="#700" fill-opacity=".467" stroke="#700" stroke-opacity=".467" stroke-width="2" points="175.1 -133.29 173 -127.29 170.9 -133.29 175.1 -133.29"/></g><g id="edge7" class="edge"><title>src/config-utl-&gt;src/extract</title><path fill="none" stroke="#070" stroke-opacity=".467" stroke-width="2" d="M235.91,-146C225.03,-146 215,-146 215,-146 215,-146 215,-102.22 215,-102.22"/><polygon fill="#070" fill-opacity=".467" stroke="#070" stroke-opacity=".467" stroke-width="2" points="217.1 -102.22 215 -96.22 212.9 -102.22 217.1 -102.22"/></g><g id="edge14" class="edge"><title>src/extract-&gt;src/meta.js</title><path fill="none" stroke="#000" stroke-opacity=".2" stroke-width="2" d="M212,-77.88C212,-74.29 212,-71 212,-71 212,-71 278.67,-71 278.67,-71 278.67,-71 278.67,-70.42 278.67,-70.42"/><polygon fill="#000" fill-opacity=".2" stroke="#000" stroke-opacity=".2" stroke-width="2" points="280.77 -71.24 278.67 -65.24 276.57 -71.24 280.77 -71.24"/></g><g id="edge13" class="edge"><title>src/extract-&gt;src/utl</title><path fill="none" stroke="#aaa" stroke-opacity=".467" stroke-width="2" d="M175.83,-92C174.85,-92 174.29,-92 174.29,-92 174.29,-92 174.29,-40.04 174.29,-40.04"/><polygon fill="#aaa" fill-opacity=".467" stroke="#aaa" stroke-opacity=".467" stroke-width="2" points="176.39 -40.04 174.29 -34.04 172.19 -40.04 176.39 -40.04"/></g><g id="edge15" class="edge"><title>src/extract-&gt;src/graph-utl</title><path fill="none" stroke="#700" stroke-opacity=".467" stroke-width="2" d="M194,-77.87C194,-77.87 194,-71.18 194,-71.18"/><polygon fill="#700" fill-opacity=".467" stroke="#700" stroke-opacity=".467" stroke-width="2" points="196.1 -71.18 194 -65.18 191.9 -71.18 196.1 -71.18"/></g><g id="edge11" class="edge"><title>src/enrich-&gt;src/utl</title><path fill="none" stroke="#aaa" stroke-opacity=".467" stroke-width="2" d="M150.12,-81C159.37,-81 167.43,-81 167.43,-81 167.43,-81 167.43,-40.25 167.43,-40.25"/><polygon fill="#aaa" fill-opacity=".467" stroke="#aaa" stroke-opacity=".467" stroke-width="2" points="169.53 -40.25 167.43 -34.25 165.33 -40.25 169.53 -40.25"/></g><g id="edge10" class="edge"><title>src/enrich-&gt;src/graph-utl</title><path fill="none" stroke="#700" stroke-opacity=".467" stroke-width="2" d="M150.01,-85C160.86,-85 170.86,-85 170.86,-85 170.86,-85 170.86,-56 170.86,-56 170.86,-56 171.36,-56 171.36,-56"/><polygon fill="#700" fill-opacity=".467" stroke="#700" stroke-opacity=".467" stroke-width="2" points="169.88 -58.1 175.88 -56 169.88 -53.9 169.88 -58.1"/></g><g id="node10" class="node"><title>src/validate</title><g id="a_node10"><a xlink:href="https://github.com/sverweij/dependency-cruiser/blob/develop/src/validate" xlink:title="validate"><polygon fill="#ccf" stroke="#000" points="164 -65 112 -65 110 -63 110 -47 162 -47 164 -49 164 -65"/><polyline fill="none" stroke="#000" points="162 -63 110 -63"/><polyline fill="none" stroke="#000" points="162 -63 162 -47"/><polyline fill="none" stroke="#000" points="162 -63 164 -65"/><text x="137" y="-53.8" font-family="Helvetica,sans-Serif" font-size="9" text-anchor="middle">validate</text></a></g></g><g id="edge12" class="edge"><title>src/enrich-&gt;src/validate</title><path fill="none" stroke="#00f" stroke-opacity=".467" stroke-width="2" d="M130,-77.87C130,-77.87 130,-71.18 130,-71.18"/><polygon fill="#00f" fill-opacity=".467" stroke="#00f" stroke-opacity=".467" stroke-width="2" points="132.1 -71.18 130 -65.18 127.9 -71.18 132.1 -71.18"/></g><g id="edge25" class="edge"><title>src/validate-&gt;src/utl</title><path fill="none" stroke="#aaa" stroke-opacity=".467" stroke-width="2" d="M164.17,-51C165.15,-51 165.71,-51 165.71,-51 165.71,-51 165.71,-40.09 165.71,-40.09"/><polygon fill="#aaa" fill-opacity=".467" stroke="#aaa" stroke-opacity=".467" stroke-width="2" points="167.81 -40.09 165.71 -34.09 163.61 -40.09 167.81 -40.09"/></g><g id="edge24" class="edge"><title>src/report-&gt;src/meta.js</title><path fill="none" stroke="#000" stroke-opacity=".2" stroke-width="2" d="M287.33,-77.87C287.33,-77.87 287.33,-71.18 287.33,-71.18"/><polygon fill="#000" fill-opacity=".2" stroke="#000" stroke-opacity=".2" stroke-width="2" points="289.43 -71.18 287.33 -65.18 285.23 -71.18 289.43 -71.18"/></g><g id="edge23" class="edge"><title>src/report-&gt;src/utl</title><path fill="none" stroke="#aaa" stroke-opacity=".467" stroke-width="2" d="M260.67,-77.78C260.67,-61.19 260.67,-28 260.67,-28 260.67,-28 223.12,-28 223.12,-28"/><polygon fill="#aaa" fill-opacity=".467" stroke="#aaa" stroke-opacity=".467" stroke-width="2" points="223.12 -25.9 217.12 -28 223.12 -30.1 223.12 -25.9"/></g><g id="edge22" class="edge"><title>src/report-&gt;src/graph-utl</title><path fill="none" stroke="#700" stroke-opacity=".467" stroke-width="2" d="M251.33,-77.87C251.33,-68.72 251.33,-56 251.33,-56 251.33,-56 236.27,-56 236.27,-56"/><polygon fill="#700" fill-opacity=".467" stroke="#700" stroke-opacity=".467" stroke-width="2" points="236.27 -53.9 230.27 -56 236.27 -58.1 236.27 -53.9"/></g></g></svg>