<svg xmlns="http://www.w3.org/2000/svg" xmlns:xlink="http://www.w3.org/1999/xlink" width="391pt" height="424" viewBox="0 0 390.63 318"><g id="graph0" class="graph" transform="scale(1 1) rotate(0) translate(4 314)"><title>dependency-cruiser output</title><polygon fill="#fff" stroke="transparent" points="-4 4 -4 -314 386.627 -314 386.627 4 -4 4"/><g id="clust1" class="cluster"><title>cluster_/bin</title><path fill="none" stroke="#000" stroke-width="2" d="M20,-176.5C20,-176.5 104.0474,-176.5 104.0474,-176.5 110.0474,-176.5 116.0474,-182.5 116.0474,-188.5 116.0474,-188.5 116.0474,-215.5 116.0474,-215.5 116.0474,-221.5 110.0474,-227.5 104.0474,-227.5 104.0474,-227.5 20,-227.5 20,-227.5 14,-227.5 8,-221.5 8,-215.5 8,-215.5 8,-188.5 8,-188.5 8,-182.5 14,-176.5 20,-176.5"/><text x="62.024" y="-216.3" fill="#000" font-family="Helvetica,sans-Serif" font-size="9" font-weight="bold" text-anchor="middle">bin</text></g><g id="clust2" class="cluster"><title>cluster_/src</title><path fill="none" stroke="#000" stroke-width="2" d="M147.5662,-25.5C147.5662,-25.5 362.627,-25.5 362.627,-25.5 368.627,-25.5 374.627,-31.5 374.627,-37.5 374.627,-37.5 374.627,-272.5 374.627,-272.5 374.627,-278.5 368.627,-284.5 362.627,-284.5 362.627,-284.5 147.5662,-284.5 147.5662,-284.5 141.5662,-284.5 135.5662,-278.5 135.5662,-272.5 135.5662,-272.5 135.5662,-37.5 135.5662,-37.5 135.5662,-31.5 141.5662,-25.5 147.5662,-25.5"/><text x="255.097" y="-273.3" fill="#000" font-family="Helvetica,sans-Serif" font-size="9" font-weight="bold" text-anchor="middle">src</text></g><g id="clust3" class="cluster"><title>cluster_/src/cli</title><path fill="none" stroke="#000" stroke-width="2" d="M155.5662,-33.5C155.5662,-33.5 354.627,-33.5 354.627,-33.5 360.627,-33.5 366.627,-39.5 366.627,-45.5 366.627,-45.5 366.627,-188.5 366.627,-188.5 366.627,-194.5 360.627,-200.5 354.627,-200.5 354.627,-200.5 155.5662,-200.5 155.5662,-200.5 149.5662,-200.5 143.5662,-194.5 143.5662,-188.5 143.5662,-188.5 143.5662,-45.5 143.5662,-45.5 143.5662,-39.5 149.5662,-33.5 155.5662,-33.5"/><text x="255.097" y="-189.3" fill="#000" font-family="Helvetica,sans-Serif" font-size="9" font-weight="bold" text-anchor="middle">cli</text></g><g id="clust4" class="cluster"><title>cluster_/src/main</title><path fill="none" stroke="#000" stroke-width="2" d="M280.856,-208.5C280.856,-208.5 326.856,-208.5 326.856,-208.5 332.856,-208.5 338.856,-214.5 338.856,-220.5 338.856,-220.5 338.856,-247.5 338.856,-247.5 338.856,-253.5 332.856,-259.5 326.856,-259.5 326.856,-259.5 280.856,-259.5 280.856,-259.5 274.856,-259.5 268.856,-253.5 268.856,-247.5 268.856,-247.5 268.856,-220.5 268.856,-220.5 268.856,-214.5 274.856,-208.5 280.856,-208.5"/><text x="303.856" y="-248.3" fill="#000" font-family="Helvetica,sans-Serif" font-size="9" font-weight="bold" text-anchor="middle">main</text></g><g id="node1" class="node"><title>bin/dependency-cruise</title><g id="a_node1"><a xlink:href="bin/dependency-cruise" xlink:title="dependency-cruise"><path fill="#ffc" stroke="#000" d="M102.4044,-202C102.4044,-202 21.643,-202 21.643,-202 18.8096,-202 15.9763,-199.1667 15.9763,-196.3333 15.9763,-196.3333 15.9763,-190.6667 15.9763,-190.6667 15.9763,-187.8333 18.8096,-185 21.643,-185 21.643,-185 102.4044,-185 102.4044,-185 105.2377,-185 108.0711,-187.8333 108.0711,-190.6667 108.0711,-190.6667 108.0711,-196.3333 108.0711,-196.3333 108.0711,-199.1667 105.2377,-202 102.4044,-202"/><text x="62.024" y="-190.8" fill="#000" font-family="Helvetica,sans-Serif" font-size="9" text-anchor="middle">dependency-cruise</text></a></g></g><g id="node3" class="node"><title>package.json</title><g id="a_node3"><a xlink:href="package.json" xlink:title="package.json"><path fill="#ffc" stroke="#000" d="M207.4371,-310C207.4371,-310 149.6952,-310 149.6952,-310 146.8619,-310 144.0286,-307.1667 144.0286,-304.3333 144.0286,-304.3333 144.0286,-298.6667 144.0286,-298.6667 144.0286,-295.8333 146.8619,-293 149.6952,-293 149.6952,-293 207.4371,-293 207.4371,-293 210.2704,-293 213.1038,-295.8333 213.1038,-298.6667 213.1038,-298.6667 213.1038,-304.3333 213.1038,-304.3333 213.1038,-307.1667 210.2704,-310 207.4371,-310"/><text x="178.566" y="-298.8" fill="#000" font-family="Helvetica,sans-Serif" font-size="9" text-anchor="middle">package.json</text></a></g></g><g id="edge1" class="edge"><title>bin/dependency-cruise-&gt;package.json</title><path fill="none" stroke="#000" d="M71.5608,-202.3381C91.2928,-220.6237 136.8258,-262.8192 161.6612,-285.8341"/><polygon fill="#000" stroke="#000" points="159.509 -288.612 169.223 -292.842 164.267 -283.477 159.509 -288.612"/></g><g id="node6" class="node"><title>src/cli/index.js</title><g id="a_node6"><a xlink:href="src/cli/index.js" xlink:title="index.js"><path fill="#ffc" stroke="#000" d="M199.8995,-131C199.8995,-131 157.2328,-131 157.2328,-131 154.3995,-131 151.5662,-128.1667 151.5662,-125.3333 151.5662,-125.3333 151.5662,-119.6667 151.5662,-119.6667 151.5662,-116.8333 154.3995,-114 157.2328,-114 157.2328,-114 199.8995,-114 199.8995,-114 202.7328,-114 205.5662,-116.8333 205.5662,-119.6667 205.5662,-119.6667 205.5662,-125.3333 205.5662,-125.3333 205.5662,-128.1667 202.7328,-131 199.8995,-131"/><text x="178.566" y="-119.8" fill="#000" font-family="Helvetica,sans-Serif" font-size="9" text-anchor="middle">index.js</text></a></g></g><g id="edge2" class="edge"><title>bin/dependency-cruise-&gt;src/cli/index.js</title><path fill="none" stroke="#000" d="M76.3141,-184.794C96.1678,-172.6987 132.3066,-150.6823 155.871,-136.3263"/><polygon fill="#000" stroke="#000" points="157.804 -139.247 164.523 -131.055 154.162 -133.269 157.804 -139.247"/></g><g id="node2" class="node"><title>fs</title><path fill="#ffc" stroke="silver" d="M325.1893,-17C325.1893,-17 282.5226,-17 282.5226,-17 279.6893,-17 276.856,-14.1667 276.856,-11.3333 276.856,-11.3333 276.856,-5.6667 276.856,-5.6667 276.856,-2.8333 279.6893,0 282.5226,0 282.5226,0 325.1893,0 325.1893,0 328.0226,0 330.856,-2.8333 330.856,-5.6667 330.856,-5.6667 330.856,-11.3333 330.856,-11.3333 330.856,-14.1667 328.0226,-17 325.1893,-17"/><text x="303.856" y="-5.8" fill="silver" font-family="Helvetica,sans-Serif" font-size="9" text-anchor="middle">fs</text></g><g id="node4" class="node"><title>src/cli/defaults.json</title><g id="a_node4"><a xlink:href="src/cli/defaults.json" xlink:title="defaults.json"><path fill="#ffc" stroke="#000" d="M331.2236,-59C331.2236,-59 276.4883,-59 276.4883,-59 273.6549,-59 270.8216,-56.1667 270.8216,-53.3333 270.8216,-53.3333 270.8216,-47.6667 270.8216,-47.6667 270.8216,-44.8333 273.6549,-42 276.4883,-42 276.4883,-42 331.2236,-42 331.2236,-42 334.057,-42 336.8903,-44.8333 336.8903,-47.6667 336.8903,-47.6667 336.8903,-53.3333 336.8903,-53.3333 336.8903,-56.1667 334.057,-59 331.2236,-59"/><text x="303.856" y="-47.8" fill="#000" font-family="Helvetica,sans-Serif" font-size="9" text-anchor="middle">defaults.json</text></a></g></g><g id="node5" class="node"><title>src/cli/formatMetaInfo.js</title><g id="a_node5"><a xlink:href="src/cli/formatMetaInfo.js" xlink:title="formatMetaInfo.js"><path fill="#ffc" stroke="#000" d="M340.7165,-88C340.7165,-88 266.9954,-88 266.9954,-88 264.1621,-88 261.3288,-85.1667 261.3288,-82.3333 261.3288,-82.3333 261.3288,-76.6667 261.3288,-76.6667 261.3288,-73.8333 264.1621,-71 266.9954,-71 266.9954,-71 340.7165,-71 340.7165,-71 343.5498,-71 346.3831,-73.8333 346.3831,-76.6667 346.3831,-76.6667 346.3831,-82.3333 346.3831,-82.3333 346.3831,-85.1667 343.5498,-88 340.7165,-88"/><text x="303.856" y="-76.8" fill="#000" font-family="Helvetica,sans-Serif" font-size="9" text-anchor="middle">formatMetaInfo.js</text></a></g></g><g id="edge9" class="edge"><title>src/cli/index.js-&gt;fs</title><path fill="none" stroke="silver" d="M183.0451,-113.9126C192.7707,-96.0306 217.509,-54.4733 249.085,-30.5 254.5685,-26.3368 260.9464,-22.8434 267.3714,-19.9552"/><polygon fill="silver" stroke="silver" points="268.778 -23.162 276.72 -16.149 266.138 -16.678 268.778 -23.162"/></g><g id="edge4" class="edge"><title>src/cli/index.js-&gt;src/cli/defaults.json</title><path fill="none" stroke="#000" d="M186.8537,-113.8285C199.2485,-101.3526 223.8673,-78.4224 249.085,-65.5 252.8359,-63.5779 256.8614,-61.8795 260.9653,-60.3836"/><polygon fill="#000" stroke="#000" points="262.165 -63.674 270.591 -57.251 259.998 -57.018 262.165 -63.674"/></g><g id="edge5" class="edge"><title>src/cli/index.js-&gt;src/cli/formatMetaInfo.js</title><path fill="none" stroke="#000" d="M198.41,-113.9382C212.4221,-108.0615 231.7198,-100.3056 249.085,-94.5 252.8178,-93.252 256.7183,-92.0285 260.6435,-90.8522"/><polygon fill="#000" stroke="#000" points="261.736 -94.18 270.37 -88.038 259.791 -87.455 261.736 -94.18"/></g><g id="node7" class="node"><title>src/cli/initRules.js</title><g id="a_node7"><a xlink:href="src/cli/initRules.js" xlink:title="initRules.js"><path fill="#ffc" stroke="#000" d="M327.7059,-117C327.7059,-117 280.006,-117 280.006,-117 277.1727,-117 274.3393,-114.1667 274.3393,-111.3333 274.3393,-111.3333 274.3393,-105.6667 274.3393,-105.6667 274.3393,-102.8333 277.1727,-100 280.006,-100 280.006,-100 327.7059,-100 327.7059,-100 330.5392,-100 333.3726,-102.8333 333.3726,-105.6667 333.3726,-105.6667 333.3726,-111.3333 333.3726,-111.3333 333.3726,-114.1667 330.5392,-117 327.7059,-117"/><text x="303.856" y="-105.8" fill="#000" font-family="Helvetica,sans-Serif" font-size="9" text-anchor="middle">initRules.js</text></a></g></g><g id="edge6" class="edge"><title>src/cli/index.js-&gt;src/cli/initRules.js</title><path fill="none" stroke="#000" d="M205.7522,-119.4622C222.7551,-117.5623 244.9545,-115.0817 263.9347,-112.9608"/><polygon fill="#000" stroke="#000" points="264.545 -116.415 274.094 -111.826 263.768 -109.458 264.545 -116.415"/></g><g id="node8" class="node"><title>src/cli/normalizeOptions.js</title><g id="a_node8"><a xlink:href="src/cli/normalizeOptions.js" xlink:title="normalizeOptions.js"><path fill="#ffc" stroke="#000" d="M345.7205,-146C345.7205,-146 261.9914,-146 261.9914,-146 259.158,-146 256.3247,-143.1667 256.3247,-140.3333 256.3247,-140.3333 256.3247,-134.6667 256.3247,-134.6667 256.3247,-131.8333 259.158,-129 261.9914,-129 261.9914,-129 345.7205,-129 345.7205,-129 348.5539,-129 351.3872,-131.8333 351.3872,-134.6667 351.3872,-134.6667 351.3872,-140.3333 351.3872,-140.3333 351.3872,-143.1667 348.5539,-146 345.7205,-146"/><text x="303.856" y="-134.8" fill="#000" font-family="Helvetica,sans-Serif" font-size="9" text-anchor="middle">normalizeOptions.js</text></a></g></g><g id="edge7" class="edge"><title>src/cli/index.js-&gt;src/cli/normalizeOptions.js</title><path fill="none" stroke="#000" d="M205.7522,-125.7548C217.5665,-127.1692 231.8898,-128.884 245.8986,-130.5612"/><polygon fill="#000" stroke="#000" points="245.658 -134.057 256.003 -131.771 246.49 -127.107 245.658 -134.057"/></g><g id="node9" class="node"><title>src/cli/validateFileExistence.js</title><g id="a_node9"><a xlink:href="src/cli/validateFileExistence.js" xlink:title="validateFileExistence.js"><path fill="#ffc" stroke="#000" d="M352.7322,-175C352.7322,-175 254.9797,-175 254.9797,-175 252.1463,-175 249.313,-172.1667 249.313,-169.3333 249.313,-169.3333 249.313,-163.6667 249.313,-163.6667 249.313,-160.8333 252.1463,-158 254.9797,-158 254.9797,-158 352.7322,-158 352.7322,-158 355.5656,-158 358.3989,-160.8333 358.3989,-163.6667 358.3989,-163.6667 358.3989,-169.3333 358.3989,-169.3333 358.3989,-172.1667 355.5656,-175 352.7322,-175"/><text x="303.856" y="-163.8" fill="#000" font-family="Helvetica,sans-Serif" font-size="9" text-anchor="middle">validateFileExistence.js</text></a></g></g><g id="edge8" class="edge"><title>src/cli/index.js-&gt;src/cli/validateFileExistence.js</title><path fill="none" stroke="#000" d="M196.5357,-131.0422C210.6142,-137.514 230.8108,-146.3173 249.085,-152.5 251.7869,-153.4141 254.5812,-154.3011 257.4121,-155.1554"/><polygon fill="#000" stroke="#000" points="256.52 -158.541 267.097 -157.925 258.445 -151.81 256.52 -158.541"/></g><g id="node10" class="node"><title>src/main/index.js</title><g id="a_node10"><a xlink:href="src/main/index.js" xlink:title="index.js"><path fill="#ffc" stroke="#000" d="M325.1893,-234C325.1893,-234 282.5226,-234 282.5226,-234 279.6893,-234 276.856,-231.1667 276.856,-228.3333 276.856,-228.3333 276.856,-222.6667 276.856,-222.6667 276.856,-219.8333 279.6893,-217 282.5226,-217 282.5226,-217 325.1893,-217 325.1893,-217 328.0226,-217 330.856,-219.8333 330.856,-222.6667 330.856,-222.6667 330.856,-228.3333 330.856,-228.3333 330.856,-231.1667 328.0226,-234 325.1893,-234"/><text x="303.856" y="-222.8" fill="#000" font-family="Helvetica,sans-Serif" font-size="9" text-anchor="middle">index.js</text></a></g></g><g id="edge3" class="edge"><title>src/cli/index.js-&gt;src/main/index.js</title><path fill="none" stroke="#000" d="M184.1148,-131.266C194.8316,-147.5635 219.9119,-182.7521 249.085,-203.5 254.6395,-207.4504 261.0052,-210.8332 267.3855,-213.6766"/><polygon fill="#000" stroke="#000" points="266.07 -216.92 276.651 -217.46 268.716 -210.439 266.07 -216.92"/></g></g></svg>