<svg xmlns="http://www.w3.org/2000/svg" xmlns:xlink="http://www.w3.org/1999/xlink" width="520" height="136pt" viewBox="0 0 390 136"><g id="graph0" class="graph" transform="scale(1 1) rotate(0) translate(4 132)"><title>dependency-cruiser output</title><polygon fill="#fff" stroke="transparent" points="-4 4 -4 -132 386 -132 386 4 -4 4"/><g id="clust1" class="cluster"><title>cluster_common</title><path fill="#fff" stroke="#000" stroke-width="2" d="M61,-8C61,-8 325,-8 325,-8 331,-8 337,-14 337,-20 337,-20 337,-48 337,-48 337,-54 331,-60 325,-60 325,-60 61,-60 61,-60 55,-60 49,-54 49,-48 49,-48 49,-20 49,-20 49,-14 55,-8 61,-8"/><text x="193" y="-48.8" font-family="Helvetica,sans-Serif" font-size="9" font-weight="bold" text-anchor="middle">common</text></g><g id="clust2" class="cluster"><title>cluster_features</title><path fill="#fff" stroke="#000" stroke-width="2" d="M20,-68C20,-68 362,-68 362,-68 368,-68 374,-74 374,-80 374,-80 374,-108 374,-108 374,-114 368,-120 362,-120 362,-120 20,-120 20,-120 14,-120 8,-114 8,-108 8,-108 8,-80 8,-80 8,-74 14,-68 20,-68"/><text x="191" y="-108.8" font-family="Helvetica,sans-Serif" font-size="9" font-weight="bold" text-anchor="middle">features</text></g><g id="node1" class="node"><title>common/customer.ts</title><g id="a_node1"><a xlink:href="common/customer.ts" xlink:title="customer.ts"><path fill="#ccc" stroke="#000" d="M322.5,-34C322.5,-34 271.5,-34 271.5,-34 268.5,-34 265.5,-31 265.5,-28 265.5,-28 265.5,-22 265.5,-22 265.5,-19 268.5,-16 271.5,-16 271.5,-16 322.5,-16 322.5,-16 325.5,-16 328.5,-19 328.5,-22 328.5,-22 328.5,-28 328.5,-28 328.5,-31 325.5,-34 322.5,-34"/><text x="297" y="-22.8" font-family="Helvetica,sans-Serif" font-size="9" text-anchor="middle">customer.ts</text></a></g></g><g id="node2" class="node"><title>common/guitar.ts</title><g id="a_node2"><a xlink:href="common/guitar.ts" xlink:title="no-unshared-utl"><path fill="#ccc" stroke="red" d="M247,-34C247,-34 205,-34 205,-34 202,-34 199,-31 199,-28 199,-28 199,-22 199,-22 199,-19 202,-16 205,-16 205,-16 247,-16 247,-16 250,-16 253,-19 253,-22 253,-22 253,-28 253,-28 253,-31 250,-34 247,-34"/><text x="226" y="-22.8" fill="red" font-family="Helvetica,sans-Serif" font-size="9" text-anchor="middle">guitar.ts</text></a></g></g><g id="node3" class="node"><title>common/icecream.ts</title><g id="a_node3"><a xlink:href="common/icecream.ts" xlink:title="no-unshared-utl"><path fill="#ccc" stroke="red" d="M114.5,-34C114.5,-34 63.5,-34 63.5,-34 60.5,-34 57.5,-31 57.5,-28 57.5,-28 57.5,-22 57.5,-22 57.5,-19 60.5,-16 63.5,-16 63.5,-16 114.5,-16 114.5,-16 117.5,-16 120.5,-19 120.5,-22 120.5,-22 120.5,-28 120.5,-28 120.5,-31 117.5,-34 114.5,-34"/><text x="89" y="-22.8" fill="red" font-family="Helvetica,sans-Serif" font-size="9" text-anchor="middle">icecream.ts</text></a></g></g><g id="node4" class="node"><title>common/movie.ts</title><g id="a_node4"><a xlink:href="common/movie.ts" xlink:title="movie.ts"><path fill="#ccc" stroke="#000" d="M181,-34C181,-34 139,-34 139,-34 136,-34 133,-31 133,-28 133,-28 133,-22 133,-22 133,-19 136,-16 139,-16 139,-16 181,-16 181,-16 184,-16 187,-19 187,-22 187,-22 187,-28 187,-28 187,-31 184,-34 181,-34"/><text x="160" y="-22.8" font-family="Helvetica,sans-Serif" font-size="9" text-anchor="middle">movie.ts</text></a></g></g><g id="node5" class="node"><title>features/check-in.ts</title><g id="a_node5"><a xlink:href="features/check-in.ts" xlink:title="check-in.ts"><path fill="#ddfeff" stroke="#000" d="M360,-94C360,-94 312,-94 312,-94 309,-94 306,-91 306,-88 306,-88 306,-82 306,-82 306,-79 309,-76 312,-76 312,-76 360,-76 360,-76 363,-76 366,-79 366,-82 366,-82 366,-88 366,-88 366,-91 363,-94 360,-94"/><text x="336" y="-82.8" font-family="Helvetica,sans-Serif" font-size="9" text-anchor="middle">check-in.ts</text></a></g></g><g id="edge1" class="edge"><title>features/check-in.ts-&gt;common/customer.ts</title><path fill="none" stroke="#000" stroke-opacity=".2" stroke-width="2" d="M321,-75.89C321,-75.89 321,-40.2 321,-40.2"/><polygon fill="#000" fill-opacity=".2" stroke="#000" stroke-opacity=".2" stroke-width="2" points="323.1 -40.2 321 -34.2 318.9 -40.2 323.1 -40.2"/></g><g id="edge2" class="edge"><title>features/check-in.ts-&gt;common/movie.ts</title><path fill="none" stroke="#000" stroke-opacity=".2" stroke-width="2" d="M313.5,-75.9C313.5,-63.82 313.5,-44 313.5,-44 313.5,-44 181.75,-44 181.75,-44 181.75,-44 181.75,-40.05 181.75,-40.05"/><polygon fill="#000" fill-opacity=".2" stroke="#000" stroke-opacity=".2" stroke-width="2" points="183.85 -40.05 181.75 -34.05 179.65 -40.05 183.85 -40.05"/></g><g id="node6" class="node"><title>features/checkout.ts</title><g id="a_node6"><a xlink:href="features/checkout.ts" xlink:title="checkout.ts"><path fill="#ddfeff" stroke="#000" d="M288,-94C288,-94 238,-94 238,-94 235,-94 232,-91 232,-88 232,-88 232,-82 232,-82 232,-79 235,-76 238,-76 238,-76 288,-76 288,-76 291,-76 294,-79 294,-82 294,-82 294,-88 294,-88 294,-91 291,-94 288,-94"/><text x="263" y="-82.8" font-family="Helvetica,sans-Serif" font-size="9" text-anchor="middle">checkout.ts</text></a></g></g><g id="edge3" class="edge"><title>features/checkout.ts-&gt;common/customer.ts</title><path fill="none" stroke="#000" stroke-opacity=".2" stroke-width="2" d="M284.5,-75.89C284.5,-75.89 284.5,-40.2 284.5,-40.2"/><polygon fill="#000" fill-opacity=".2" stroke="#000" stroke-opacity=".2" stroke-width="2" points="286.6 -40.2 284.5 -34.2 282.4 -40.2 286.6 -40.2"/></g><g id="edge4" class="edge"><title>features/checkout.ts-&gt;common/movie.ts</title><path fill="none" stroke="#000" stroke-opacity=".2" stroke-width="2" d="M242.5,-75.84C242.5,-67.01 242.5,-55 242.5,-55 242.5,-55 176.5,-55 176.5,-55 176.5,-55 176.5,-40.16 176.5,-40.16"/><polygon fill="#000" fill-opacity=".2" stroke="#000" stroke-opacity=".2" stroke-width="2" points="178.6 -40.16 176.5 -34.16 174.4 -40.16 178.6 -40.16"/></g><g id="node7" class="node"><title>features/information.ts</title><g id="a_node7"><a xlink:href="features/information.ts" xlink:title="information.ts"><path fill="#ddfeff" stroke="#000" d="M81.5,-94C81.5,-94 22.5,-94 22.5,-94 19.5,-94 16.5,-91 16.5,-88 16.5,-88 16.5,-82 16.5,-82 16.5,-79 19.5,-76 22.5,-76 22.5,-76 81.5,-76 81.5,-76 84.5,-76 87.5,-79 87.5,-82 87.5,-82 87.5,-88 87.5,-88 87.5,-91 84.5,-94 81.5,-94"/><text x="52" y="-82.8" font-family="Helvetica,sans-Serif" font-size="9" text-anchor="middle">information.ts</text></a></g></g><g id="edge5" class="edge"><title>features/information.ts-&gt;common/icecream.ts</title><path fill="none" stroke="#000" stroke-opacity=".2" stroke-width="2" d="M72.5,-75.89C72.5,-75.89 72.5,-40.2 72.5,-40.2"/><polygon fill="#000" fill-opacity=".2" stroke="#000" stroke-opacity=".2" stroke-width="2" points="74.6 -40.2 72.5 -34.2 70.4 -40.2 74.6 -40.2"/></g><g id="node8" class="node"><title>features/refund.ts</title><g id="a_node8"><a xlink:href="features/refund.ts" xlink:title="refund.ts"><path fill="#ddfeff" stroke="#000" d="M214,-94C214,-94 172,-94 172,-94 169,-94 166,-91 166,-88 166,-88 166,-82 166,-82 166,-79 169,-76 172,-76 172,-76 214,-76 214,-76 217,-76 220,-79 220,-82 220,-82 220,-88 220,-88 220,-91 217,-94 214,-94"/><text x="193" y="-82.8" font-family="Helvetica,sans-Serif" font-size="9" text-anchor="middle">refund.ts</text></a></g></g><g id="edge6" class="edge"><title>features/refund.ts-&gt;common/customer.ts</title><path fill="none" stroke="#000" stroke-opacity=".2" stroke-width="2" d="M209.5,-75.94C209.5,-70.64 209.5,-65 209.5,-65 209.5,-65 275,-65 275,-65 275,-65 275,-40.28 275,-40.28"/><polygon fill="#000" fill-opacity=".2" stroke="#000" stroke-opacity=".2" stroke-width="2" points="277.1 -40.28 275 -34.28 272.9 -40.28 277.1 -40.28"/></g><g id="edge7" class="edge"><title>features/refund.ts-&gt;common/movie.ts</title><path fill="none" stroke="#000" stroke-opacity=".2" stroke-width="2" d="M171.25,-75.89C171.25,-75.89 171.25,-40.2 171.25,-40.2"/><polygon fill="#000" fill-opacity=".2" stroke="#000" stroke-opacity=".2" stroke-width="2" points="173.35 -40.2 171.25 -34.2 169.15 -40.2 173.35 -40.2"/></g><g id="node9" class="node"><title>features/search.ts</title><g id="a_node9"><a xlink:href="features/search.ts" xlink:title="search.ts"><path fill="#ddfeff" stroke="#000" d="M148,-94C148,-94 106,-94 106,-94 103,-94 100,-91 100,-88 100,-88 100,-82 100,-82 100,-79 103,-76 106,-76 106,-76 148,-76 148,-76 151,-76 154,-79 154,-82 154,-82 154,-88 154,-88 154,-91 151,-94 148,-94"/><text x="127" y="-82.8" font-family="Helvetica,sans-Serif" font-size="9" text-anchor="middle">search.ts</text></a></g></g><g id="edge8" class="edge"><title>features/search.ts-&gt;common/movie.ts</title><path fill="none" stroke="#000" stroke-opacity=".2" stroke-width="2" d="M143.5,-75.89C143.5,-75.89 143.5,-40.2 143.5,-40.2"/><polygon fill="#000" fill-opacity=".2" stroke="#000" stroke-opacity=".2" stroke-width="2" points="145.6 -40.2 143.5 -34.2 141.4 -40.2 145.6 -40.2"/></g></g></svg>